<svg width="32" height="32" viewBox="0 0 32 32" fill="none" xmlns="http://www.w3.org/2000/svg">
  <!-- Python-inspired design with educational elements -->
  <rect width="32" height="32" rx="6" fill="#3b82f6"/>
  
  <!-- Python snake-like curves -->
  <path d="M8 12C8 10.8954 8.89543 10 10 10H14C15.1046 10 16 10.8954 16 12V14C16 15.1046 15.1046 16 14 16H10C8.89543 16 8 15.1046 8 14V12Z" fill="#ffd43b"/>
  
  <path d="M16 18C16 16.8954 16.8954 16 18 16H22C23.1046 16 24 16.8954 24 18V20C24 21.1046 23.1046 22 22 22H18C16.8954 22 16 21.1046 16 20V18Z" fill="#306998"/>
  
  <!-- Code brackets to represent programming -->
  <path d="M6 8L4 10L6 12" stroke="#ffffff" stroke-width="1.5" stroke-linecap="round" stroke-linejoin="round"/>
  <path d="M26 8L28 10L26 12" stroke="#ffffff" stroke-width="1.5" stroke-linecap="round" stroke-linejoin="round"/>
  
  <!-- Learning/education dot -->
  <circle cx="12" cy="13" r="1" fill="#306998"/>
  <circle cx="20" cy="19" r="1" fill="#ffd43b"/>
</svg>
